{
	"asset":{
		"generator":"Khronos glTF Blender I/O v5.0.21",
		"version":"2.0"
	},
	"scene":0,
	"scenes":[
		{
			"name":"Scene",
			"nodes":[
				0
			]
		}
	],
	"nodes":[
		{
			"mesh":0,
			"name":"Object_181"
		}
	],
	"materials":[
		{
			"doubleSided":true,
			"emissiveFactor":[
				1,
				1,
				1
			],
			"emissiveTexture":{
				"index":0
			},
			"name":"mat_zelda"
		},
		{
			"doubleSided":true,
			"emissiveFactor":[
				1,
				1,
				1
			],
			"emissiveTexture":{
				"index":1
			},
			"name":"mat_zeldaEyes"
		},
		{
			"doubleSided":true,
			"emissiveFactor":[
				1,
				1,
				1
			],
			"emissiveTexture":{
				"index":2
			},
			"name":"mat_zeldaHair"
		}
	],
	"meshes":[
		{
			"extras":{
				"targetNames":[
					"target_0",
					"target_1",
					"target_2",
					"target_3",
					"target_4"
				]
			},
			"name":"mesh_15",
			"primitives":[
				{
					"attributes":{
						"POSITION":0,
						"NORMAL":1,
						"TEXCOORD_0":2
					},
					"indices":3,
					"material":0,
					"targets":[
						{
							"POSITION":4,
							"NORMAL":5
						},
						{
							"POSITION":6,
							"NORMAL":7
						},
						{
							"POSITION":8,
							"NORMAL":9
						},
						{
							"POSITION":10,
							"NORMAL":11
						},
						{
							"POSITION":12,
							"NORMAL":13
						}
					]
				},
				{
					"attributes":{
						"POSITION":14,
						"NORMAL":15,
						"TEXCOORD_0":16
					},
					"indices":17,
					"material":1,
					"targets":[
						{
							"POSITION":18,
							"NORMAL":19
						},
						{
							"POSITION":20,
							"NORMAL":21
						},
						{
							"POSITION":22,
							"NORMAL":23
						},
						{
							"POSITION":24,
							"NORMAL":25
						},
						{
							"POSITION":26,
							"NORMAL":27
						}
					]
				},
				{
					"attributes":{
						"POSITION":28,
						"NORMAL":29,
						"TEXCOORD_0":30
					},
					"indices":31,
					"material":2,
					"targets":[
						{
							"POSITION":32,
							"NORMAL":33
						},
						{
							"POSITION":34,
							"NORMAL":35
						},
						{
							"POSITION":36,
							"NORMAL":37
						},
						{
							"POSITION":38,
							"NORMAL":39
						},
						{
							"POSITION":40,
							"NORMAL":41
						}
					]
				}
			],
			"weights":[
				0,
				0,
				0,
				0,
				0
			]
		}
	],
	"textures":[
		{
			"sampler":0,
			"source":0
		},
		{
			"sampler":1,
			"source":1
		},
		{
			"sampler":0,
			"source":2
		}
	],
	"images":[
		{
			"mimeType":"image/png",
			"name":"mat_zelda_emissive",
			"uri":"mat_zelda_emissive.png"
		},
		{
			"mimeType":"image/png",
			"name":"mat_zeldaEyes_emissive",
			"uri":"mat_zeldaEyes_emissive.png"
		},
		{
			"mimeType":"image/png",
			"name":"mat_zeldaHair_emissive",
			"uri":"mat_zeldaHair_emissive.png"
		}
	],
	"accessors":[
		{
			"bufferView":0,
			"componentType":5126,
			"count":10185,
			"max":[
				0.3477439880371094,
				0.6307399272918701,
				0.15529412031173706
			],
			"min":[
				-0.3469562232494354,
				-0.8682053685188293,
				-0.17819452285766602
			],
			"type":"VEC3"
		},
		{
			"bufferView":1,
			"componentType":5126,
			"count":10185,
			"type":"VEC3"
		},
		{
			"bufferView":2,
			"componentType":5126,
			"count":10185,
			"type":"VEC2"
		},
		{
			"bufferView":3,
			"componentType":5123,
			"count":47178,
			"type":"SCALAR"
		},
		{
			"componentType":5126,
			"count":10185,
			"max":[
				0.0018792897462844849,
				0,
				0.0006210356950759888
			],
			"min":[
				-0.0018792897462844849,
				-0.008246541023254395,
				-8.670985698699951e-05
			],
			"sparse":{
				"count":84,
				"indices":{
					"bufferView":4,
					"componentType":5123
				},
				"values":{
					"bufferView":5
				}
			},
			"type":"VEC3"
		},
		{
			"bufferView":6,
			"componentType":5126,
			"count":10185,
			"type":"VEC3"
		},
		{
			"componentType":5126,
			"count":10185,
			"max":[
				0.0018792897462844849,
				0,
				0.0006210356950759888
			],
			"min":[
				-0.0018792897462844849,
				-0.008246541023254395,
				-8.670985698699951e-05
			],
			"sparse":{
				"count":84,
				"indices":{
					"bufferView":7,
					"componentType":5123
				},
				"values":{
					"bufferView":8
				}
			},
			"type":"VEC3"
		},
		{
			"bufferView":9,
			"componentType":5126,
			"count":10185,
			"type":"VEC3"
		},
		{
			"componentType":5126,
			"count":10185,
			"max":[
				0.008776187896728516,
				0.022217154502868652,
				0.07801055163145065
			],
			"min":[
				-0.01127372682094574,
				-0.1017436683177948,
				-0.05023260787129402
			],
			"sparse":{
				"count":3664,
				"indices":{
					"bufferView":10,
					"componentType":5123
				},
				"values":{
					"bufferView":11
				}
			},
			"type":"VEC3"
		},
		{
			"bufferView":12,
			"componentType":5126,
			"count":10185,
			"type":"VEC3"
		},
		{
			"componentType":5126,
			"count":10185,
			"max":[
				0.008776187896728516,
				0.022217154502868652,
				0.07801055163145065
			],
			"min":[
				-0.01127372682094574,
				-0.1017436683177948,
				-0.05023260787129402
			],
			"sparse":{
				"count":3664,
				"indices":{
					"bufferView":13,
					"componentType":5123
				},
				"values":{
					"bufferView":14
				}
			},
			"type":"VEC3"
		},
		{
			"bufferView":15,
			"componentType":5126,
			"count":10185,
			"type":"VEC3"
		},
		{
			"componentType":5126,
			"count":10185,
			"max":[
				0,
				0,
				0
			],
			"min":[
				0,
				0,
				0
			],
			"sparse":{
				"count":1,
				"indices":{
					"bufferView":16,
					"componentType":5121
				},
				"values":{
					"bufferView":17
				}
			},
			"type":"VEC3"
		},
		{
			"bufferView":18,
			"componentType":5126,
			"count":10185,
			"type":"VEC3"
		},
		{
			"bufferView":19,
			"componentType":5126,
			"count":1184,
			"max":[
				0.06261754035949707,
				0.5611265897750854,
				0.09657838940620422
			],
			"min":[
				-0.061798345297575,
				0.5043193101882935,
				0.06898707151412964
			],
			"type":"VEC3"
		},
		{
			"bufferView":20,
			"componentType":5126,
			"count":1184,
			"type":"VEC3"
		},
		{
			"bufferView":21,
			"componentType":5126,
			"count":1184,
			"type":"VEC2"
		},
		{
			"bufferView":22,
			"componentType":5123,
			"count":3360,
			"type":"SCALAR"
		},
		{
			"componentType":5126,
			"count":1184,
			"max":[
				0.0014979615807533264,
				0.00034248828887939453,
				0.0017618760466575623
			],
			"min":[
				-0.0014979615807533264,
				-0.0017387866973876953,
				-0.0026859939098358154
			],
			"sparse":{
				"count":162,
				"indices":{
					"bufferView":23,
					"componentType":5123
				},
				"values":{
					"bufferView":24
				}
			},
			"type":"VEC3"
		},
		{
			"bufferView":25,
			"componentType":5126,
			"count":1184,
			"type":"VEC3"
		},
		{
			"componentType":5126,
			"count":1184,
			"max":[
				0.007541568949818611,
				0.010431170463562012,
				0.006075084209442139
			],
			"min":[
				-0.007541568949818611,
				-0.010429620742797852,
				-0.0030454695224761963
			],
			"sparse":{
				"count":290,
				"indices":{
					"bufferView":26,
					"componentType":5123
				},
				"values":{
					"bufferView":27
				}
			},
			"type":"VEC3"
		},
		{
			"bufferView":28,
			"componentType":5126,
			"count":1184,
			"type":"VEC3"
		},
		{
			"componentType":5126,
			"count":1184,
			"max":[
				0.00383087620139122,
				0.004344940185546875,
				0.006075084209442139
			],
			"min":[
				-0.00383087620139122,
				-0.003659844398498535,
				-0.00383884459733963
			],
			"sparse":{
				"count":226,
				"indices":{
					"bufferView":29,
					"componentType":5123
				},
				"values":{
					"bufferView":30
				}
			},
			"type":"VEC3"
		},
		{
			"bufferView":31,
			"componentType":5126,
			"count":1184,
			"type":"VEC3"
		},
		{
			"componentType":5126,
			"count":1184,
			"max":[
				0.0032343752682209015,
				0.0030243396759033203,
				0.006826817989349365
			],
			"min":[
				-0.0032343752682209015,
				-0.0034008026123046875,
				-0.0027091801166534424
			],
			"sparse":{
				"count":362,
				"indices":{
					"bufferView":32,
					"componentType":5123
				},
				"values":{
					"bufferView":33
				}
			},
			"type":"VEC3"
		},
		{
			"bufferView":34,
			"componentType":5126,
			"count":1184,
			"type":"VEC3"
		},
		{
			"componentType":5126,
			"count":1184,
			"max":[
				0.008707106113433838,
				0.010775089263916016,
				0.006075084209442139
			],
			"min":[
				-0.008181452751159668,
				-0.010634779930114746,
				-0.004563286900520325
			],
			"sparse":{
				"count":354,
				"indices":{
					"bufferView":35,
					"componentType":5123
				},
				"values":{
					"bufferView":36
				}
			},
			"type":"VEC3"
		},
		{
			"bufferView":37,
			"componentType":5126,
			"count":1184,
			"type":"VEC3"
		},
		{
			"bufferView":38,
			"componentType":5126,
			"count":3038,
			"max":[
				0.13716287910938263,
				0.6849258542060852,
				0.11183987557888031
			],
			"min":[
				-0.13634368777275085,
				0.3971114754676819,
				-0.17264053225517273
			],
			"type":"VEC3"
		},
		{
			"bufferView":39,
			"componentType":5126,
			"count":3038,
			"type":"VEC3"
		},
		{
			"bufferView":40,
			"componentType":5126,
			"count":3038,
			"type":"VEC2"
		},
		{
			"bufferView":41,
			"componentType":5123,
			"count":12165,
			"type":"SCALAR"
		},
		{
			"componentType":5126,
			"count":3038,
			"max":[
				0,
				0,
				0
			],
			"min":[
				0,
				0,
				0
			],
			"sparse":{
				"count":1,
				"indices":{
					"bufferView":42,
					"componentType":5121
				},
				"values":{
					"bufferView":43
				}
			},
			"type":"VEC3"
		},
		{
			"bufferView":44,
			"componentType":5126,
			"count":3038,
			"type":"VEC3"
		},
		{
			"componentType":5126,
			"count":3038,
			"max":[
				0,
				0,
				0
			],
			"min":[
				0,
				0,
				0
			],
			"sparse":{
				"count":1,
				"indices":{
					"bufferView":45,
					"componentType":5121
				},
				"values":{
					"bufferView":46
				}
			},
			"type":"VEC3"
		},
		{
			"bufferView":47,
			"componentType":5126,
			"count":3038,
			"type":"VEC3"
		},
		{
			"componentType":5126,
			"count":3038,
			"max":[
				0,
				0,
				0
			],
			"min":[
				0,
				0,
				0
			],
			"sparse":{
				"count":1,
				"indices":{
					"bufferView":48,
					"componentType":5121
				},
				"values":{
					"bufferView":49
				}
			},
			"type":"VEC3"
		},
		{
			"bufferView":50,
			"componentType":5126,
			"count":3038,
			"type":"VEC3"
		},
		{
			"componentType":5126,
			"count":3038,
			"max":[
				0,
				0,
				0
			],
			"min":[
				0,
				0,
				0
			],
			"sparse":{
				"count":1,
				"indices":{
					"bufferView":51,
					"componentType":5121
				},
				"values":{
					"bufferView":52
				}
			},
			"type":"VEC3"
		},
		{
			"bufferView":53,
			"componentType":5126,
			"count":3038,
			"type":"VEC3"
		},
		{
			"componentType":5126,
			"count":3038,
			"max":[
				0,
				0,
				0
			],
			"min":[
				0,
				0,
				0
			],
			"sparse":{
				"count":1,
				"indices":{
					"bufferView":54,
					"componentType":5121
				},
				"values":{
					"bufferView":55
				}
			},
			"type":"VEC3"
		},
		{
			"bufferView":56,
			"componentType":5126,
			"count":3038,
			"type":"VEC3"
		}
	],
	"bufferViews":[
		{
			"buffer":0,
			"byteLength":122220,
			"byteOffset":0,
			"target":34962
		},
		{
			"buffer":0,
			"byteLength":122220,
			"byteOffset":122220,
			"target":34962
		},
		{
			"buffer":0,
			"byteLength":81480,
			"byteOffset":244440,
			"target":34962
		},
		{
			"buffer":0,
			"byteLength":94356,
			"byteOffset":325920,
			"target":34963
		},
		{
			"buffer":0,
			"byteLength":168,
			"byteOffset":420276
		},
		{
			"buffer":0,
			"byteLength":1008,
			"byteOffset":420444
		},
		{
			"buffer":0,
			"byteLength":122220,
			"byteOffset":421452,
			"target":34962
		},
		{
			"buffer":0,
			"byteLength":168,
			"byteOffset":543672
		},
		{
			"buffer":0,
			"byteLength":1008,
			"byteOffset":543840
		},
		{
			"buffer":0,
			"byteLength":122220,
			"byteOffset":544848,
			"target":34962
		},
		{
			"buffer":0,
			"byteLength":7328,
			"byteOffset":667068
		},
		{
			"buffer":0,
			"byteLength":43968,
			"byteOffset":674396
		},
		{
			"buffer":0,
			"byteLength":122220,
			"byteOffset":718364,
			"target":34962
		},
		{
			"buffer":0,
			"byteLength":7328,
			"byteOffset":840584
		},
		{
			"buffer":0,
			"byteLength":43968,
			"byteOffset":847912
		},
		{
			"buffer":0,
			"byteLength":122220,
			"byteOffset":891880,
			"target":34962
		},
		{
			"buffer":0,
			"byteLength":1,
			"byteOffset":1014100
		},
		{
			"buffer":0,
			"byteLength":12,
			"byteOffset":1014104
		},
		{
			"buffer":0,
			"byteLength":122220,
			"byteOffset":1014116,
			"target":34962
		},
		{
			"buffer":0,
			"byteLength":14208,
			"byteOffset":1136336,
			"target":34962
		},
		{
			"buffer":0,
			"byteLength":14208,
			"byteOffset":1150544,
			"target":34962
		},
		{
			"buffer":0,
			"byteLength":9472,
			"byteOffset":1164752,
			"target":34962
		},
		{
			"buffer":0,
			"byteLength":6720,
			"byteOffset":1174224,
			"target":34963
		},
		{
			"buffer":0,
			"byteLength":324,
			"byteOffset":1180944
		},
		{
			"buffer":0,
			"byteLength":1944,
			"byteOffset":1181268
		},
		{
			"buffer":0,
			"byteLength":14208,
			"byteOffset":1183212,
			"target":34962
		},
		{
			"buffer":0,
			"byteLength":580,
			"byteOffset":1197420
		},
		{
			"buffer":0,
			"byteLength":3480,
			"byteOffset":1198000
		},
		{
			"buffer":0,
			"byteLength":14208,
			"byteOffset":1201480,
			"target":34962
		},
		{
			"buffer":0,
			"byteLength":452,
			"byteOffset":1215688
		},
		{
			"buffer":0,
			"byteLength":2712,
			"byteOffset":1216140
		},
		{
			"buffer":0,
			"byteLength":14208,
			"byteOffset":1218852,
			"target":34962
		},
		{
			"buffer":0,
			"byteLength":724,
			"byteOffset":1233060
		},
		{
			"buffer":0,
			"byteLength":4344,
			"byteOffset":1233784
		},
		{
			"buffer":0,
			"byteLength":14208,
			"byteOffset":1238128,
			"target":34962
		},
		{
			"buffer":0,
			"byteLength":708,
			"byteOffset":1252336
		},
		{
			"buffer":0,
			"byteLength":4248,
			"byteOffset":1253044
		},
		{
			"buffer":0,
			"byteLength":14208,
			"byteOffset":1257292,
			"target":34962
		},
		{
			"buffer":0,
			"byteLength":36456,
			"byteOffset":1271500,
			"target":34962
		},
		{
			"buffer":0,
			"byteLength":36456,
			"byteOffset":1307956,
			"target":34962
		},
		{
			"buffer":0,
			"byteLength":24304,
			"byteOffset":1344412,
			"target":34962
		},
		{
			"buffer":0,
			"byteLength":24330,
			"byteOffset":1368716,
			"target":34963
		},
		{
			"buffer":0,
			"byteLength":1,
			"byteOffset":1393048
		},
		{
			"buffer":0,
			"byteLength":12,
			"byteOffset":1393052
		},
		{
			"buffer":0,
			"byteLength":36456,
			"byteOffset":1393064,
			"target":34962
		},
		{
			"buffer":0,
			"byteLength":1,
			"byteOffset":1429520
		},
		{
			"buffer":0,
			"byteLength":12,
			"byteOffset":1429524
		},
		{
			"buffer":0,
			"byteLength":36456,
			"byteOffset":1429536,
			"target":34962
		},
		{
			"buffer":0,
			"byteLength":1,
			"byteOffset":1465992
		},
		{
			"buffer":0,
			"byteLength":12,
			"byteOffset":1465996
		},
		{
			"buffer":0,
			"byteLength":36456,
			"byteOffset":1466008,
			"target":34962
		},
		{
			"buffer":0,
			"byteLength":1,
			"byteOffset":1502464
		},
		{
			"buffer":0,
			"byteLength":12,
			"byteOffset":1502468
		},
		{
			"buffer":0,
			"byteLength":36456,
			"byteOffset":1502480,
			"target":34962
		},
		{
			"buffer":0,
			"byteLength":1,
			"byteOffset":1538936
		},
		{
			"buffer":0,
			"byteLength":12,
			"byteOffset":1538940
		},
		{
			"buffer":0,
			"byteLength":36456,
			"byteOffset":1538952,
			"target":34962
		}
	],
	"samplers":[
		{
			"magFilter":9729,
			"minFilter":9987
		},
		{
			"magFilter":9729,
			"minFilter":9987,
			"wrapS":33071,
			"wrapT":33071
		}
	],
	"buffers":[
		{
			"byteLength":1575408,
			"uri":"zelda.bin"
		}
	]
}
