{
	"asset":{
		"generator":"Khronos glTF Blender I/O v5.0.21",
		"version":"2.0"
	},
	"scene":0,
	"scenes":[
		{
			"name":"Scene",
			"nodes":[
				0
			]
		}
	],
	"nodes":[
		{
			"mesh":0,
			"name":"car.001",
			"rotation":[
				-0.002867409959435463,
				-0.7071008086204529,
				0.7071011066436768,
				0.002868192968890071
			],
			"scale":[
				0.009999999776482582,
				0.009999999776482582,
				0.009999999776482582
			],
			"translation":[
				0,
				1,
				0
			]
		}
	],
	"materials":[
		{
			"doubleSided":true,
			"name":"base_color",
			"pbrMetallicRoughness":{
				"baseColorFactor":[
					0.8000074625015259,
					0,
					0.0019775060936808586,
					1
				],
				"metallicFactor":0,
				"roughnessFactor":0.5
			}
		}
	],
	"meshes":[
		{
			"name":"Mesh.010",
			"primitives":[
				{
					"attributes":{
						"POSITION":0,
						"NORMAL":1,
						"TEXCOORD_0":2
					},
					"indices":3,
					"material":0
				}
			]
		}
	],
	"accessors":[
		{
			"bufferView":0,
			"componentType":5126,
			"count":3418,
			"max":[
				286.5665283203125,
				119.76870727539062,
				75.96937561035156
			],
			"min":[
				-286.5665283203125,
				-119.76873779296875,
				-75.96937561035156
			],
			"type":"VEC3"
		},
		{
			"bufferView":1,
			"componentType":5126,
			"count":3418,
			"type":"VEC3"
		},
		{
			"bufferView":2,
			"componentType":5126,
			"count":3418,
			"type":"VEC2"
		},
		{
			"bufferView":3,
			"componentType":5123,
			"count":7851,
			"type":"SCALAR"
		}
	],
	"bufferViews":[
		{
			"buffer":0,
			"byteLength":41016,
			"byteOffset":0,
			"target":34962
		},
		{
			"buffer":0,
			"byteLength":41016,
			"byteOffset":41016,
			"target":34962
		},
		{
			"buffer":0,
			"byteLength":27344,
			"byteOffset":82032,
			"target":34962
		},
		{
			"buffer":0,
			"byteLength":15702,
			"byteOffset":109376,
			"target":34963
		}
	],
	"buffers":[
		{
			"byteLength":125080,
			"uri":"car_body.bin"
		}
	]
}
