{
	"asset":{
		"generator":"Khronos glTF Blender I/O v5.0.21",
		"version":"2.0"
	},
	"scene":0,
	"scenes":[
		{
			"name":"Scene",
			"nodes":[
				0
			]
		}
	],
	"nodes":[
		{
			"mesh":0,
			"name":"left_wheel_back",
			"rotation":[
				-0.002867409959435463,
				-0.7071008086204529,
				0.7071011066436768,
				0.002868192968890071
			],
			"scale":[
				0.009999999776482582,
				0.009999999776482582,
				0.009999999776482582
			],
			"translation":[
				0,
				1,
				0
			]
		}
	],
	"materials":[
		{
			"doubleSided":true,
			"name":"Material",
			"pbrMetallicRoughness":{
				"baseColorFactor":[
					0,
					0,
					0,
					1
				],
				"metallicFactor":0,
				"roughnessFactor":0.5
			}
		}
	],
	"meshes":[
		{
			"name":"Mesh.001",
			"primitives":[
				{
					"attributes":{
						"POSITION":0,
						"NORMAL":1,
						"TEXCOORD_0":2
					},
					"indices":3,
					"material":0
				}
			]
		}
	],
	"accessors":[
		{
			"bufferView":0,
			"componentType":5126,
			"count":872,
			"max":[
				-107.35270690917969,
				-74.65397644042969,
				93.94618225097656
			],
			"min":[
				-197.3497772216797,
				-120.93687438964844,
				3.9491233825683594
			],
			"type":"VEC3"
		},
		{
			"bufferView":1,
			"componentType":5126,
			"count":872,
			"type":"VEC3"
		},
		{
			"bufferView":2,
			"componentType":5126,
			"count":872,
			"type":"VEC2"
		},
		{
			"bufferView":3,
			"componentType":5123,
			"count":2010,
			"type":"SCALAR"
		}
	],
	"bufferViews":[
		{
			"buffer":0,
			"byteLength":10464,
			"byteOffset":0,
			"target":34962
		},
		{
			"buffer":0,
			"byteLength":10464,
			"byteOffset":10464,
			"target":34962
		},
		{
			"buffer":0,
			"byteLength":6976,
			"byteOffset":20928,
			"target":34962
		},
		{
			"buffer":0,
			"byteLength":4020,
			"byteOffset":27904,
			"target":34963
		}
	],
	"buffers":[
		{
			"byteLength":31924,
			"uri":"left_back_wheel.bin"
		}
	]
}
