{
	"asset":{
		"generator":"Khronos glTF Blender I/O v5.0.21",
		"version":"2.0"
	},
	"scene":0,
	"scenes":[
		{
			"name":"Scene",
			"nodes":[
				0
			]
		}
	],
	"nodes":[
		{
			"mesh":0,
			"name":"left_wheel_back.001",
			"rotation":[
				0.4979684054851532,
				-0.4979676306247711,
				0.5020235776901245,
				0.5020239353179932
			],
			"scale":[
				0.009999999776482582,
				0.009999999776482582,
				0.009999999776482582
			]
		}
	],
	"materials":[
		{
			"doubleSided":true,
			"name":"Material",
			"pbrMetallicRoughness":{
				"baseColorFactor":[
					0,
					0,
					0,
					1
				],
				"metallicFactor":0,
				"roughnessFactor":0.5
			}
		}
	],
	"meshes":[
		{
			"name":"Mesh.011",
			"primitives":[
				{
					"attributes":{
						"POSITION":0,
						"NORMAL":1,
						"TEXCOORD_0":2
					},
					"indices":3,
					"material":0
				}
			]
		}
	],
	"accessors":[
		{
			"bufferView":0,
			"componentType":5126,
			"count":872,
			"max":[
				45.449249267578125,
				25.661827087402344,
				44.950836181640625
			],
			"min":[
				-44.547821044921875,
				-20.621070861816406,
				-45.04622268676758
			],
			"type":"VEC3"
		},
		{
			"bufferView":1,
			"componentType":5126,
			"count":872,
			"type":"VEC3"
		},
		{
			"bufferView":2,
			"componentType":5126,
			"count":872,
			"type":"VEC2"
		},
		{
			"bufferView":3,
			"componentType":5123,
			"count":2010,
			"type":"SCALAR"
		}
	],
	"bufferViews":[
		{
			"buffer":0,
			"byteLength":10464,
			"byteOffset":0,
			"target":34962
		},
		{
			"buffer":0,
			"byteLength":10464,
			"byteOffset":10464,
			"target":34962
		},
		{
			"buffer":0,
			"byteLength":6976,
			"byteOffset":20928,
			"target":34962
		},
		{
			"buffer":0,
			"byteLength":4020,
			"byteOffset":27904,
			"target":34963
		}
	],
	"buffers":[
		{
			"byteLength":31924,
			"uri":"left_back_wheel.bin"
		}
	]
}
