{
	"asset":{
		"generator":"Khronos glTF Blender I/O v5.0.21",
		"version":"2.0"
	},
	"scene":0,
	"scenes":[
		{
			"name":"Scene",
			"nodes":[
				0
			]
		}
	],
	"nodes":[
		{
			"mesh":0,
			"name":"left_dors",
			"rotation":[
				0.4979684054851532,
				-0.4979676306247711,
				0.5020235776901245,
				0.5020239353179932
			],
			"scale":[
				0.009999999776482582,
				0.009999999776482582,
				0.009999999776482582
			],
			"translation":[
				0.942307710647583,
				1.1156809329986572,
				0.053617775440216064
			]
		}
	],
	"materials":[
		{
			"doubleSided":true,
			"name":"base_color",
			"pbrMetallicRoughness":{
				"baseColorFactor":[
					0.8000074625015259,
					0,
					0.0019775060936808586,
					1
				],
				"metallicFactor":0,
				"roughnessFactor":0
			}
		},
		{
			"doubleSided":true,
			"name":"Material.001",
			"pbrMetallicRoughness":{
				"baseColorFactor":[
					1,
					0.8572847247123718,
					0.9631121158599854,
					1
				],
				"metallicFactor":0,
				"roughnessFactor":0.5
			}
		}
	],
	"meshes":[
		{
			"name":"Mesh.004",
			"primitives":[
				{
					"attributes":{
						"POSITION":0,
						"NORMAL":1,
						"TEXCOORD_0":2
					},
					"indices":3,
					"material":0
				},
				{
					"attributes":{
						"POSITION":4,
						"NORMAL":5,
						"TEXCOORD_0":6
					},
					"indices":7,
					"material":1
				}
			]
		}
	],
	"accessors":[
		{
			"bufferView":0,
			"componentType":5126,
			"count":137,
			"max":[
				56.99384689331055,
				33.09983825683594,
				76.47114562988281
			],
			"min":[
				-107.13932037353516,
				-16.003219604492188,
				-52.89509201049805
			],
			"type":"VEC3"
		},
		{
			"bufferView":1,
			"componentType":5126,
			"count":137,
			"type":"VEC3"
		},
		{
			"bufferView":2,
			"componentType":5126,
			"count":137,
			"type":"VEC2"
		},
		{
			"bufferView":3,
			"componentType":5123,
			"count":327,
			"type":"SCALAR"
		},
		{
			"bufferView":4,
			"componentType":5126,
			"count":18,
			"max":[
				36.20303726196289,
				30.921737670898438,
				-3.7308387756347656
			],
			"min":[
				-92.45767974853516,
				-11.83050537109375,
				-49.519710540771484
			],
			"type":"VEC3"
		},
		{
			"bufferView":5,
			"componentType":5126,
			"count":18,
			"type":"VEC3"
		},
		{
			"bufferView":6,
			"componentType":5126,
			"count":18,
			"type":"VEC2"
		},
		{
			"bufferView":7,
			"componentType":5123,
			"count":42,
			"type":"SCALAR"
		}
	],
	"bufferViews":[
		{
			"buffer":0,
			"byteLength":1644,
			"byteOffset":0,
			"target":34962
		},
		{
			"buffer":0,
			"byteLength":1644,
			"byteOffset":1644,
			"target":34962
		},
		{
			"buffer":0,
			"byteLength":1096,
			"byteOffset":3288,
			"target":34962
		},
		{
			"buffer":0,
			"byteLength":654,
			"byteOffset":4384,
			"target":34963
		},
		{
			"buffer":0,
			"byteLength":216,
			"byteOffset":5040,
			"target":34962
		},
		{
			"buffer":0,
			"byteLength":216,
			"byteOffset":5256,
			"target":34962
		},
		{
			"buffer":0,
			"byteLength":144,
			"byteOffset":5472,
			"target":34962
		},
		{
			"buffer":0,
			"byteLength":84,
			"byteOffset":5616,
			"target":34963
		}
	],
	"buffers":[
		{
			"byteLength":5700,
			"uri":"left_door.bin"
		}
	]
}
