{
	"asset":{
		"generator":"Khronos glTF Blender I/O v5.0.21",
		"version":"2.0"
	},
	"scene":0,
	"scenes":[
		{
			"name":"Scene",
			"nodes":[
				0
			]
		}
	],
	"nodes":[
		{
			"mesh":0,
			"name":"right_wheel_back",
			"rotation":[
				-0.002867409959435463,
				-0.7071008086204529,
				0.7071011066436768,
				0.002868192968890071
			],
			"scale":[
				0.009999999776482582,
				0.009999999776482582,
				0.009999999776482582
			],
			"translation":[
				0,
				1,
				0
			]
		}
	],
	"materials":[
		{
			"doubleSided":true,
			"name":"Material",
			"pbrMetallicRoughness":{
				"baseColorFactor":[
					0,
					0,
					0,
					1
				],
				"metallicFactor":0,
				"roughnessFactor":0.5
			}
		}
	],
	"meshes":[
		{
			"name":"Mesh.006",
			"primitives":[
				{
					"attributes":{
						"POSITION":0,
						"NORMAL":1,
						"TEXCOORD_0":2
					},
					"indices":3,
					"material":0
				}
			]
		}
	],
	"accessors":[
		{
			"bufferView":0,
			"componentType":5126,
			"count":781,
			"max":[
				-107.35292053222656,
				121.16118621826172,
				93.94607543945312
			],
			"min":[
				-197.3500213623047,
				74.65354919433594,
				3.9490203857421875
			],
			"type":"VEC3"
		},
		{
			"bufferView":1,
			"componentType":5126,
			"count":781,
			"type":"VEC3"
		},
		{
			"bufferView":2,
			"componentType":5126,
			"count":781,
			"type":"VEC2"
		},
		{
			"bufferView":3,
			"componentType":5123,
			"count":1854,
			"type":"SCALAR"
		}
	],
	"bufferViews":[
		{
			"buffer":0,
			"byteLength":9372,
			"byteOffset":0,
			"target":34962
		},
		{
			"buffer":0,
			"byteLength":9372,
			"byteOffset":9372,
			"target":34962
		},
		{
			"buffer":0,
			"byteLength":6248,
			"byteOffset":18744,
			"target":34962
		},
		{
			"buffer":0,
			"byteLength":3708,
			"byteOffset":24992,
			"target":34963
		}
	],
	"buffers":[
		{
			"byteLength":28700,
			"uri":"right_back_wheel.bin"
		}
	]
}
