{
	"asset":{
		"generator":"Khronos glTF Blender I/O v5.0.21",
		"version":"2.0"
	},
	"scene":0,
	"scenes":[
		{
			"name":"Scene",
			"nodes":[
				0
			]
		}
	],
	"nodes":[
		{
			"mesh":0,
			"name":"right_wheel_back",
			"rotation":[
				0.4979684054851532,
				-0.4979676306247711,
				0.5020235776901245,
				0.5020239353179932
			],
			"scale":[
				0.009999999776482582,
				0.009999999776482582,
				0.009999999776482582
			]
		}
	],
	"materials":[
		{
			"doubleSided":true,
			"name":"Material",
			"pbrMetallicRoughness":{
				"baseColorFactor":[
					0,
					0,
					0,
					1
				],
				"metallicFactor":0,
				"roughnessFactor":0.5
			}
		}
	],
	"meshes":[
		{
			"name":"Mesh.006",
			"primitives":[
				{
					"attributes":{
						"POSITION":0,
						"NORMAL":1,
						"TEXCOORD_0":2
					},
					"indices":3,
					"material":0
				}
			]
		}
	],
	"accessors":[
		{
			"bufferView":0,
			"componentType":5126,
			"count":779,
			"max":[
				45.14878845214844,
				20.747329711914062,
				44.7819709777832
			],
			"min":[
				-44.84831237792969,
				-25.76030731201172,
				-45.215084075927734
			],
			"type":"VEC3"
		},
		{
			"bufferView":1,
			"componentType":5126,
			"count":779,
			"type":"VEC3"
		},
		{
			"bufferView":2,
			"componentType":5126,
			"count":779,
			"type":"VEC2"
		},
		{
			"bufferView":3,
			"componentType":5123,
			"count":1854,
			"type":"SCALAR"
		}
	],
	"bufferViews":[
		{
			"buffer":0,
			"byteLength":9348,
			"byteOffset":0,
			"target":34962
		},
		{
			"buffer":0,
			"byteLength":9348,
			"byteOffset":9348,
			"target":34962
		},
		{
			"buffer":0,
			"byteLength":6232,
			"byteOffset":18696,
			"target":34962
		},
		{
			"buffer":0,
			"byteLength":3708,
			"byteOffset":24928,
			"target":34963
		}
	],
	"buffers":[
		{
			"byteLength":28636,
			"uri":"right_back_wheel.bin"
		}
	]
}
