{
	"asset":{
		"generator":"Khronos glTF Blender I/O v5.0.21",
		"version":"2.0"
	},
	"scene":0,
	"scenes":[
		{
			"name":"Scene",
			"nodes":[
				0
			]
		}
	],
	"nodes":[
		{
			"mesh":0,
			"name":"right_doors",
			"rotation":[
				0.4979684054851532,
				-0.4979676306247711,
				0.5020235776901245,
				0.5020239353179932
			],
			"scale":[
				0.009999999776482582,
				0.009999999776482582,
				0.009999999776482582
			],
			"translation":[
				-1.1130400896072388,
				1.0982656478881836,
				0.11520981788635254
			]
		}
	],
	"materials":[
		{
			"doubleSided":true,
			"name":"base_color",
			"pbrMetallicRoughness":{
				"baseColorFactor":[
					0.8000074625015259,
					0,
					0.0019775060936808586,
					1
				],
				"metallicFactor":0,
				"roughnessFactor":0
			}
		},
		{
			"doubleSided":true,
			"name":"Material.001",
			"pbrMetallicRoughness":{
				"baseColorFactor":[
					1,
					0.8572847247123718,
					0.9631121158599854,
					1
				],
				"metallicFactor":0,
				"roughnessFactor":0.5
			}
		}
	],
	"meshes":[
		{
			"name":"Mesh.005",
			"primitives":[
				{
					"attributes":{
						"POSITION":0,
						"NORMAL":1,
						"TEXCOORD_0":2
					},
					"indices":3,
					"material":0
				},
				{
					"attributes":{
						"POSITION":4,
						"NORMAL":5,
						"TEXCOORD_0":6
					},
					"indices":7,
					"material":1
				}
			]
		}
	],
	"accessors":[
		{
			"bufferView":0,
			"componentType":5126,
			"count":127,
			"max":[
				50.84894561767578,
				15.683372497558594,
				75.08712768554688
			],
			"min":[
				-102.7755126953125,
				-33.41975402832031,
				-54.68649673461914
			],
			"type":"VEC3"
		},
		{
			"bufferView":1,
			"componentType":5126,
			"count":127,
			"type":"VEC3"
		},
		{
			"bufferView":2,
			"componentType":5126,
			"count":127,
			"type":"VEC2"
		},
		{
			"bufferView":3,
			"componentType":5123,
			"count":309,
			"type":"SCALAR"
		},
		{
			"bufferView":4,
			"componentType":5126,
			"count":17,
			"max":[
				30.058183670043945,
				11.510848999023438,
				-5.522289276123047
			],
			"min":[
				-95.177001953125,
				-31.24164581298828,
				-51.31113052368164
			],
			"type":"VEC3"
		},
		{
			"bufferView":5,
			"componentType":5126,
			"count":17,
			"type":"VEC3"
		},
		{
			"bufferView":6,
			"componentType":5126,
			"count":17,
			"type":"VEC2"
		},
		{
			"bufferView":7,
			"componentType":5123,
			"count":39,
			"type":"SCALAR"
		}
	],
	"bufferViews":[
		{
			"buffer":0,
			"byteLength":1524,
			"byteOffset":0,
			"target":34962
		},
		{
			"buffer":0,
			"byteLength":1524,
			"byteOffset":1524,
			"target":34962
		},
		{
			"buffer":0,
			"byteLength":1016,
			"byteOffset":3048,
			"target":34962
		},
		{
			"buffer":0,
			"byteLength":618,
			"byteOffset":4064,
			"target":34963
		},
		{
			"buffer":0,
			"byteLength":204,
			"byteOffset":4684,
			"target":34962
		},
		{
			"buffer":0,
			"byteLength":204,
			"byteOffset":4888,
			"target":34962
		},
		{
			"buffer":0,
			"byteLength":136,
			"byteOffset":5092,
			"target":34962
		},
		{
			"buffer":0,
			"byteLength":78,
			"byteOffset":5228,
			"target":34963
		}
	],
	"buffers":[
		{
			"byteLength":5308,
			"uri":"right_door.bin"
		}
	]
}
